<?xml version="1.0" standalone="no"?>
<!DOCTYPE svg PUBLIC "-//W3C//DTD SVG 20010904//EN"
 "http://www.w3.org/TR/2001/REC-SVG-20010904/DTD/svg10.dtd">
<svg version="1.0" xmlns="http://www.w3.org/2000/svg"
 width="800.000000pt" height="652.000000pt" viewBox="0 0 800.000000 652.000000"
 preserveAspectRatio="xMidYMid meet">

<g transform="translate(0.000000,652.000000) scale(0.100000,-0.100000)"
fill="#FFFFFF" stroke="none">
<path d="M3450 6484 c-28 -13 -69 -24 -90 -24 -20 0 -57 -11 -82 -24 -40 -21
-50 -23 -87 -13 -31 9 -58 8 -113 -3 -40 -7 -102 -15 -137 -16 -49 -3 -72 -9
-101 -29 -23 -16 -57 -28 -91 -32 -39 -5 -60 -13 -78 -32 -14 -14 -46 -37 -70
-51 -72 -40 -84 -66 -89 -175 -3 -52 -7 -95 -11 -95 -4 0 -23 12 -42 26 -99
75 -235 101 -307 59 -107 -63 -192 -279 -192 -487 l0 -81 -72 6 c-60 5 -84 2
-146 -19 -149 -50 -269 -126 -320 -203 -39 -60 -112 -331 -112 -416 l0 -53
-47 -7 c-60 -9 -93 -26 -168 -86 -33 -27 -84 -67 -113 -89 -63 -49 -114 -125
-138 -206 -15 -53 -16 -72 -5 -181 10 -108 9 -230 -5 -318 -4 -29 -7 -32 -70
-42 -185 -32 -329 -179 -369 -378 -11 -56 -25 -92 -46 -120 -85 -115 -104
-163 -96 -237 5 -39 0 -65 -23 -129 -35 -94 -37 -148 -10 -222 21 -56 53 -92
133 -147 26 -18 47 -38 47 -44 0 -6 -30 -23 -68 -39 -135 -55 -213 -139 -254
-271 -18 -61 -20 -85 -15 -225 l5 -156 -36 -105 c-42 -125 -40 -153 18 -224
22 -26 40 -56 40 -65 0 -52 34 -128 76 -168 24 -24 44 -45 44 -48 0 -2 -17
-13 -38 -24 -20 -10 -47 -30 -58 -43 -60 -66 -100 -209 -89 -322 6 -66 16 -99
84 -284 26 -71 31 -98 31 -176 0 -232 78 -332 280 -357 99 -12 154 -7 270 27
47 14 108 32 136 40 64 18 134 78 166 142 18 38 24 71 29 172 4 69 12 145 18
170 14 60 15 289 1 342 -26 102 -51 146 -103 187 -29 21 -68 46 -87 54 l-35
14 32 19 c17 10 45 26 62 36 42 23 98 103 118 168 16 54 22 199 15 380 -2 42
3 105 12 145 19 86 20 174 2 240 -19 72 -31 91 -103 166 -36 37 -61 69 -56 72
4 2 31 12 60 21 75 25 143 92 187 186 39 82 66 188 66 262 0 27 13 81 31 130
84 225 82 217 87 345 l4 123 -36 61 c-39 65 -43 79 -23 79 6 0 37 11 68 24
111 45 182 128 234 270 18 49 40 84 81 129 62 68 99 137 116 220 10 45 8 70
-6 146 -10 52 -14 97 -10 101 5 5 29 4 54 -1 25 -6 70 -9 100 -7 103 7 262
137 321 261 34 72 36 113 12 214 -9 40 -14 76 -10 79 4 4 36 -20 71 -54 95
-91 141 -101 208 -44 17 15 54 38 82 52 30 15 64 44 84 70 l34 44 -6 186 c-5
117 -3 190 3 200 5 8 12 12 14 10 113 -133 161 -170 220 -170 47 0 153 41 224
86 80 51 94 87 105 264 4 80 9 152 11 160 4 21 70 -99 109 -199 32 -82 33 -83
92 -113 59 -30 63 -30 171 -25 123 5 189 24 234 66 44 41 77 165 90 330 5 73
12 136 15 139 13 12 18 -12 27 -139 13 -165 46 -289 90 -330 45 -42 111 -61
234 -66 108 -5 112 -5 171 25 59 30 60 31 92 113 18 46 49 113 70 149 l37 65
6 -60 c4 -33 7 -98 8 -144 2 -157 33 -203 184 -277 98 -48 155 -56 206 -30 15
8 58 47 95 87 53 55 70 69 78 58 5 -8 6 -89 2 -199 l-6 -186 34 -44 c20 -26
54 -55 84 -70 28 -14 65 -37 82 -52 67 -57 113 -47 208 44 35 34 67 58 71 54
4 -3 -1 -39 -10 -79 -24 -101 -22 -142 12 -214 38 -79 96 -142 191 -206 63
-43 84 -52 130 -55 30 -2 75 1 100 7 25 5 49 6 54 1 4 -4 0 -49 -10 -101 -14
-76 -16 -101 -6 -146 17 -83 54 -152 116 -220 41 -45 63 -80 81 -129 52 -142
123 -225 234 -270 31 -13 62 -24 69 -24 19 0 15 -14 -23 -79 -33 -57 -35 -64
-35 -155 0 -120 11 -173 68 -316 35 -89 47 -135 53 -204 21 -222 118 -388 252
-432 29 -9 56 -19 60 -21 5 -3 -20 -35 -56 -72 -72 -75 -84 -94 -103 -166 -18
-66 -17 -154 2 -240 9 -41 14 -103 12 -150 -7 -183 -1 -320 15 -375 20 -63 75
-143 117 -168 16 -9 44 -26 62 -36 l33 -19 -35 -14 c-100 -42 -153 -106 -186
-228 -19 -68 -18 -292 1 -370 8 -33 14 -103 15 -156 0 -126 18 -179 85 -245
39 -39 65 -56 106 -67 30 -9 93 -28 141 -42 119 -35 159 -39 263 -26 208 25
285 121 285 357 0 78 5 105 31 176 17 46 42 115 56 153 48 131 32 321 -36 420
-24 36 -42 51 -107 92 -18 10 -16 13 19 43 45 38 60 66 82 150 11 42 28 77 51
103 52 61 54 94 12 217 l-36 105 5 156 c5 140 3 164 -15 225 -41 132 -119 216
-254 271 -38 16 -68 33 -68 39 0 6 21 26 48 44 79 55 111 91 132 147 27 74 25
128 -10 222 -23 64 -28 90 -23 129 8 74 -11 122 -96 237 -21 28 -35 64 -46
120 -40 199 -184 346 -369 378 -63 10 -66 13 -70 42 -14 88 -15 210 -5 318 11
109 10 128 -5 181 -24 81 -75 157 -138 206 -29 22 -80 62 -113 89 -75 60 -108
77 -168 86 l-47 7 0 53 c0 85 -73 356 -112 416 -51 77 -171 153 -320 203 -62
21 -86 24 -145 19 l-70 -6 -6 114 c-8 169 -44 286 -116 381 -55 74 -90 92
-172 92 -71 -1 -142 -28 -208 -78 -19 -14 -38 -26 -42 -26 -4 0 -8 43 -11 95
-5 109 -17 135 -89 175 -24 14 -56 37 -70 51 -18 19 -39 27 -78 32 -34 4 -68
16 -91 32 -29 20 -52 26 -101 29 -35 1 -97 9 -137 16 -55 11 -82 12 -113 3
-37 -10 -47 -8 -87 13 -25 13 -62 24 -84 24 -21 0 -58 10 -81 22 -37 20 -60
22 -201 25 -202 4 -299 -7 -332 -38 l-24 -22 -24 22 c-31 30 -114 40 -317 40
-144 -1 -161 -2 -209 -25z m372 -55 c9 -5 35 -9 57 -9 32 0 44 -5 57 -25 15
-23 15 -41 0 -234 -9 -115 -16 -238 -16 -273 0 -82 -13 -125 -50 -170 -41 -49
-104 -78 -187 -85 -116 -9 -222 33 -238 94 -3 16 -43 113 -87 217 l-81 189 5
99 c6 120 21 142 101 153 29 4 66 16 83 26 23 14 51 19 105 20 41 0 94 4 119
8 47 9 104 4 132 -10z m573 5 c78 -5 119 -12 140 -24 17 -10 54 -21 83 -25 85
-11 102 -41 102 -182 0 -79 9 -53 -137 -403 -47 -113 -49 -115 -98 -140 -42
-21 -64 -25 -140 -25 -81 0 -95 3 -143 30 -33 18 -66 46 -84 73 -29 42 -31 50
-39 194 -4 83 -13 213 -19 289 -14 175 -9 191 65 201 28 3 66 11 85 16 19 6
44 8 55 6 11 -2 70 -7 130 -10z m-1235 -84 c11 -6 27 -34 37 -63 14 -44 17
-99 19 -355 l2 -302 -51 -45 c-115 -100 -225 -131 -295 -82 -38 26 -148 165
-190 239 -48 84 -71 151 -88 261 -14 93 -14 107 0 140 10 24 22 37 34 37 10 0
37 18 60 40 22 22 50 40 61 40 12 0 62 16 111 35 49 19 102 35 117 35 16 0 51
7 78 14 62 18 81 19 105 6z m1760 0 c19 -6 66 -15 103 -20 37 -6 86 -19 107
-30 22 -11 65 -27 97 -35 42 -11 67 -25 91 -50 18 -19 42 -35 52 -35 12 0 26
-13 36 -32 29 -56 -8 -254 -71 -378 -27 -54 -131 -194 -186 -252 -34 -36 -40
-38 -94 -38 -48 0 -69 6 -122 36 -36 20 -84 55 -108 77 l-42 42 1 300 c2 253
5 308 19 352 24 71 47 83 117 63z m-2524 -398 c217 -149 227 -168 240 -437 5
-99 8 -214 6 -255 -2 -68 -4 -77 -29 -97 -16 -13 -33 -23 -40 -23 -6 0 -33
-18 -59 -41 -64 -55 -91 -51 -171 28 -33 32 -90 86 -127 121 -109 103 -166
238 -166 393 0 152 35 271 96 333 39 38 61 46 115 43 36 -3 63 -16 135 -65z
m3437 42 c35 -26 75 -89 93 -149 25 -80 30 -269 9 -340 -30 -106 -79 -189
-151 -257 -37 -35 -96 -91 -131 -125 -80 -78 -102 -81 -168 -23 -25 22 -51 40
-57 40 -5 0 -24 10 -40 22 l-31 21 7 256 c9 308 15 333 104 409 57 49 203 153
232 165 28 12 107 0 133 -19z m-3875 -576 c58 -27 128 -97 164 -165 41 -74 71
-213 66 -298 -8 -115 -90 -244 -183 -286 -51 -24 -71 -24 -78 0 -2 10 -34 35
-69 55 -71 39 -78 42 -78 25 0 -15 21 -31 83 -66 26 -14 47 -30 47 -34 0 -4
-21 -1 -47 7 -27 8 -67 19 -90 25 -24 6 -43 15 -43 20 0 5 -9 9 -20 9 -10 0
-54 15 -97 34 -43 18 -95 39 -116 46 -90 28 -120 87 -94 182 8 29 20 85 27
123 21 131 72 207 168 255 191 96 268 111 360 68z m4290 3 c102 -41 207 -97
238 -129 43 -45 63 -88 80 -180 8 -42 22 -103 30 -136 9 -33 13 -73 10 -92 -8
-39 -50 -77 -103 -94 -21 -7 -73 -28 -116 -46 -43 -19 -87 -34 -97 -34 -11 0
-20 -4 -20 -9 0 -5 -19 -14 -42 -20 -24 -6 -64 -17 -90 -25 -27 -8 -48 -11
-48 -7 0 4 21 20 48 34 61 35 82 51 82 66 0 17 -7 14 -78 -25 -35 -20 -67 -45
-69 -55 -7 -24 -26 -24 -79 1 -56 27 -119 98 -152 168 -85 185 21 494 198 579
58 28 142 30 208 4z m-4791 -694 c70 -15 180 -83 205 -126 45 -78 60 -260 25
-298 -8 -10 -18 -30 -22 -45 -4 -17 -15 -28 -28 -30 -17 -2 -23 -11 -25 -36
-3 -27 -8 -34 -34 -39 -26 -5 -29 -9 -25 -31 7 -35 -1 -52 -24 -52 -22 0 -25
-21 -7 -50 17 -26 3 -36 -27 -20 -35 18 -42 5 -21 -35 24 -44 14 -61 -24 -38
-40 23 -47 11 -20 -32 20 -32 21 -38 8 -51 -13 -14 -19 -12 -45 10 -52 44 -67
34 -32 -23 30 -49 6 -60 -40 -18 -29 25 -37 28 -39 14 -2 -8 4 -27 13 -41 16
-23 16 -26 1 -32 -8 -3 -27 3 -43 15 -23 19 -28 20 -35 6 -12 -21 -34 -19
-126 10 -131 41 -153 80 -151 267 1 113 -2 142 -20 192 -54 150 4 276 172 379
40 24 99 60 131 80 68 42 121 47 233 24z m5319 -24 c32 -20 92 -56 132 -81 91
-55 135 -99 167 -168 29 -61 33 -142 10 -197 -23 -55 -33 -141 -23 -203 11
-74 -4 -157 -38 -202 -29 -38 -63 -54 -161 -80 -60 -16 -65 -16 -77 0 -11 15
-14 15 -36 -3 -43 -32 -63 -21 -39 22 5 11 9 27 7 35 -2 11 -12 7 -39 -15 -46
-39 -72 -28 -40 17 39 55 18 72 -31 25 -26 -25 -30 -26 -44 -11 -15 15 -15 19
5 46 20 29 27 52 16 52 -4 0 -19 -7 -35 -15 -38 -20 -48 -4 -24 40 21 39 15
52 -15 35 -32 -16 -43 -4 -26 29 16 31 12 41 -17 41 -14 0 -18 8 -18 39 0 35
-3 39 -30 45 -26 5 -30 10 -30 37 0 22 -5 32 -20 36 -28 7 -80 119 -80 172 0
58 29 166 54 203 56 82 177 135 312 137 53 1 68 -4 120 -36z m-5922 -899 c104
-27 259 -92 311 -132 65 -49 83 -81 69 -120 -7 -19 -8 -35 -2 -46 7 -12 5 -22
-4 -33 -7 -9 -12 -24 -10 -34 2 -9 -2 -20 -8 -24 -13 -8 -13 -75 -1 -75 6 0
17 10 25 22 9 12 18 20 20 17 11 -11 -27 -139 -67 -224 -39 -85 -41 -94 -39
-173 6 -209 -53 -333 -190 -402 -73 -36 -80 -37 -93 -8 -6 13 -26 30 -45 40
-32 15 -37 15 -52 1 -41 -37 -234 5 -288 62 -20 21 -20 24 -5 33 16 8 15 13
-11 57 -26 45 -28 47 -37 27 -13 -29 -22 -28 -48 9 -22 31 -22 31 -34 10 -11
-21 -12 -21 -28 -4 -24 28 -47 88 -47 125 0 18 11 57 25 85 13 29 31 92 39
140 13 73 22 97 60 152 52 77 64 106 77 183 19 114 59 176 178 275 74 60 98
65 205 37z m6482 -25 c121 -93 174 -173 193 -287 13 -77 25 -106 77 -183 38
-55 47 -79 60 -152 8 -48 26 -111 39 -140 14 -28 25 -67 25 -85 0 -37 -23 -97
-47 -125 -16 -17 -17 -17 -28 4 -12 21 -12 21 -34 -10 -26 -37 -35 -38 -48 -9
-9 20 -11 18 -37 -27 -26 -44 -27 -49 -11 -57 15 -9 15 -12 -5 -33 -54 -57
-247 -99 -288 -62 -15 14 -20 14 -52 -1 -19 -10 -39 -27 -45 -40 -13 -29 -20
-28 -93 9 -138 69 -196 191 -190 401 2 79 0 88 -39 173 -40 85 -78 213 -67
224 2 3 11 -5 20 -17 8 -12 19 -22 25 -22 12 0 12 67 -1 75 -6 4 -10 15 -8 24
2 10 -3 25 -10 34 -10 11 -11 21 -3 34 6 12 6 25 0 34 -47 75 107 187 356 258
112 32 149 28 211 -20z m-6521 -1219 c3 -5 -3 -10 -14 -10 -12 0 -21 5 -21 10
0 6 6 10 14 10 8 0 18 -4 21 -10z m6405 0 c0 -5 -9 -10 -21 -10 -11 0 -17 5
-14 10 3 6 13 10 21 10 8 0 14 -4 14 -10z m-6749 -74 c33 -8 75 -9 142 -2 l94
9 85 -41 c186 -90 241 -228 187 -472 -19 -88 -20 -104 -8 -206 22 -199 -5
-326 -86 -410 -36 -38 -46 -42 -103 -49 -35 -4 -66 -4 -70 -1 -9 9 16 25 51
33 22 4 27 10 24 24 -4 13 0 19 12 19 9 0 26 6 36 14 17 12 17 16 5 31 -12 14
-12 18 1 26 8 5 22 9 33 9 10 0 16 5 13 13 -3 6 -8 20 -12 29 -4 10 1 24 12
35 16 16 18 33 17 124 -2 96 -4 109 -31 154 -31 52 -63 71 -63 38 0 -11 7 -43
16 -72 12 -42 13 -56 3 -67 -10 -12 -8 -21 9 -44 33 -44 29 -56 -20 -51 -24 3
-23 -18 3 -45 33 -35 19 -57 -31 -49 -44 7 -51 -2 -20 -30 33 -30 26 -48 -16
-40 -37 6 -37 6 -31 -24 6 -29 5 -31 -23 -31 -24 0 -29 -5 -32 -27 -3 -32 -10
-32 -115 -12 -44 9 -80 10 -128 3 -58 -9 -72 -8 -105 8 -46 23 -93 80 -133
162 -17 33 -48 81 -70 104 -36 41 -39 47 -33 85 4 23 22 78 41 122 43 104 46
129 28 260 -8 61 -12 129 -9 153 14 108 102 209 201 232 31 8 46 6 126 -14z
m7244 -8 c67 -36 127 -125 140 -208 4 -26 0 -93 -9 -156 -17 -124 -14 -165 21
-244 29 -65 53 -138 53 -163 0 -9 -17 -36 -38 -60 -21 -23 -52 -70 -69 -103
-42 -85 -88 -140 -137 -163 -36 -17 -48 -18 -103 -8 -48 8 -78 8 -125 -1 -106
-21 -113 -21 -116 11 -3 22 -8 27 -32 27 -27 0 -29 2 -24 30 6 29 6 29 -30 23
-42 -7 -49 12 -16 42 31 28 24 37 -20 30 -50 -8 -64 14 -31 49 29 31 28 50 -4
42 -36 -9 -42 15 -14 53 17 24 20 33 10 44 -9 11 -8 28 4 73 19 74 19 84 -2
84 -12 0 -29 -20 -47 -55 -25 -49 -29 -66 -30 -157 -1 -88 1 -105 17 -121 11
-11 16 -25 12 -35 -4 -9 -9 -23 -12 -29 -3 -8 3 -13 13 -13 11 0 25 -4 32 -9
12 -7 12 -12 0 -30 -11 -18 -11 -23 2 -31 8 -5 25 -10 37 -10 15 0 20 -5 16
-18 -3 -14 5 -21 36 -31 64 -19 52 -35 -21 -27 -71 8 -95 21 -133 70 -68 89
-88 219 -64 407 10 78 9 97 -10 183 -27 124 -27 205 1 286 29 88 80 141 186
192 l84 41 95 -10 c80 -9 105 -8 160 7 70 18 117 15 168 -12z m-7122 -1184
c29 -15 73 -42 99 -60 27 -19 66 -36 90 -40 100 -15 207 -138 195 -225 -3 -24
0 -45 9 -56 20 -27 18 -45 -5 -38 -30 9 -33 -10 -6 -35 34 -31 33 -60 -1 -60
l-25 0 20 -29 c20 -28 28 -61 14 -61 -3 0 -15 7 -25 17 -17 15 -18 15 -18 -3
0 -10 7 -28 15 -38 25 -33 19 -48 -15 -41 -34 8 -36 4 -14 -30 18 -28 11 -66
-8 -47 -15 15 -38 16 -38 2 0 -12 31 -44 56 -58 15 -9 17 -13 6 -23 -10 -11
-18 -10 -42 4 -25 15 -30 16 -30 3 0 -19 24 -43 51 -51 19 -6 21 -13 17 -50
-8 -67 -38 -119 -70 -123 -15 -2 -37 2 -48 8 -18 10 -22 8 -27 -9 -7 -26 -17
-26 -53 -1 -32 23 -42 17 -33 -18 5 -20 3 -23 -8 -17 -8 5 -20 17 -27 27 -19
26 -34 12 -27 -23 8 -36 -4 -37 -35 -4 -32 34 -44 31 -37 -9 7 -42 -10 -40
-37 4 -29 50 -48 33 -26 -24 12 -31 1 -33 -33 -5 -21 16 -30 18 -47 9 -32 -17
-108 12 -153 58 -62 63 -67 89 -66 296 l1 183 -52 104 c-52 103 -52 104 -47
174 8 90 32 158 67 192 16 14 75 48 132 74 129 59 198 64 281 23z m7090 -22
c60 -27 122 -61 137 -75 35 -34 59 -102 67 -192 5 -70 5 -71 -47 -175 l-52
-104 1 -183 c2 -206 -4 -232 -66 -295 -45 -46 -121 -75 -153 -58 -17 9 -26 7
-47 -9 -34 -28 -45 -26 -33 5 23 60 3 73 -30 19 -28 -45 -40 -45 -33 0 7 41
-5 44 -37 10 -31 -33 -43 -32 -35 4 7 35 -8 49 -27 23 -7 -10 -19 -22 -27 -27
-11 -6 -13 -3 -8 17 9 35 -1 41 -33 18 -36 -25 -46 -25 -53 1 -5 17 -9 19 -27
9 -11 -6 -33 -10 -48 -8 -32 4 -62 56 -70 123 -4 37 -2 44 17 50 27 8 51 32
51 51 0 13 -5 12 -30 -3 -24 -14 -32 -15 -42 -4 -11 10 -9 14 6 23 25 14 56
46 56 58 0 14 -23 13 -38 -2 -19 -19 -26 19 -8 47 22 34 20 38 -14 30 -34 -7
-40 8 -15 41 8 10 15 28 15 38 0 18 -1 18 -18 3 -10 -10 -22 -17 -25 -17 -14
0 -6 33 14 61 l20 29 -25 0 c-34 0 -35 29 -1 60 27 25 24 44 -6 35 -23 -7 -25
11 -5 38 9 11 12 32 9 56 -12 88 95 210 196 225 23 4 58 18 77 32 18 14 61 41
96 60 95 51 151 48 291 -14z"/>
<path d="M3515 6363 c-10 -7 -34 -16 -53 -19 -33 -6 -34 -8 -27 -43 9 -47 43
-126 52 -118 3 4 0 32 -7 62 -14 60 -15 60 17 69 19 6 27 1 44 -28 12 -20 23
-36 26 -36 3 0 3 19 1 43 -1 23 0 44 5 46 20 10 64 -10 75 -33 14 -32 30 -33
34 -3 2 17 11 23 38 25 37 4 60 17 60 36 0 17 -242 17 -265 -1z"/>
<path d="M3359 6289 c-6 -13 -9 -48 -7 -84 3 -49 10 -72 33 -105 62 -88 76
-120 95 -222 21 -111 46 -188 61 -188 14 0 12 8 -35 191 -39 148 -50 177 -81
215 -36 43 -59 114 -37 114 6 0 14 -9 17 -20 3 -11 11 -20 17 -20 5 0 8 6 5
14 -3 7 -11 39 -18 70 -14 59 -31 70 -50 35z"/>
<path d="M3682 5948 c-27 -34 -43 -170 -21 -183 18 -11 22 2 29 83 4 42 10 85
14 95 9 20 -6 23 -22 5z"/>
<path d="M4220 6364 c0 -19 23 -32 60 -36 27 -2 36 -8 38 -25 4 -30 20 -29 34
2 10 23 62 48 80 38 4 -2 5 -24 1 -48 -3 -25 -3 -45 0 -45 3 0 14 16 26 36 17
29 25 34 44 28 32 -9 31 -9 17 -69 -17 -71 -6 -82 21 -21 30 68 36 116 15 116
-9 0 -33 8 -54 17 -45 20 -282 26 -282 7z"/>
<path d="M4588 6243 c-9 -38 -14 -70 -11 -73 3 -3 8 0 10 6 2 6 10 20 18 30
13 18 14 16 15 -17 0 -27 -10 -49 -44 -92 -28 -36 -47 -72 -51 -97 -4 -22 -24
-101 -45 -175 -21 -75 -34 -138 -29 -141 15 -9 45 74 69 193 23 109 34 136 95
223 47 68 48 210 1 210 -6 0 -19 -30 -28 -67z"/>
<path d="M4295 5944 c5 -11 11 -55 14 -98 4 -49 11 -81 18 -83 28 -10 30 105
2 162 -16 33 -48 51 -34 19z"/>
<path d="M3075 6251 c-3 -6 3 -15 14 -21 33 -17 46 -80 34 -163 -11 -75 -3
-201 14 -218 12 -12 27 306 17 348 -12 50 -60 83 -79 54z"/>
<path d="M2905 6220 c-89 -25 -199 -70 -222 -91 -23 -22 -25 -29 -21 -94 6
-95 32 -148 116 -239 39 -42 83 -98 98 -126 15 -27 31 -50 35 -50 23 0 -55
131 -127 216 -30 35 -44 60 -44 80 0 17 -8 37 -20 47 -11 9 -20 25 -20 36 0
14 5 18 20 14 24 -6 25 -3 3 42 -23 48 -7 57 27 15 34 -41 48 -35 25 10 -9 17
-14 38 -11 46 9 23 41 16 56 -11 19 -35 30 -31 30 11 0 25 4 35 13 31 48 -20
47 -20 47 13 0 31 1 32 34 26 42 -8 58 10 21 24 -14 6 -27 10 -28 9 -1 -1 -15
-5 -32 -9z"/>
<path d="M2966 5748 c-11 -56 10 -185 28 -168 2 3 6 34 7 70 4 105 -20 172
-35 98z"/>
<path d="M4872 6247 c-28 -34 -32 -73 -26 -239 4 -93 11 -165 15 -161 18 18
28 147 18 216 -13 84 -6 128 26 158 13 13 21 27 19 31 -8 12 -40 9 -52 -5z"/>
<path d="M5038 6223 c-10 -3 -18 -11 -18 -19 0 -12 8 -13 35 -8 34 6 35 5 35
-25 0 -32 16 -41 37 -20 18 18 30 3 25 -31 -5 -36 10 -39 28 -5 15 27 47 34
56 11 3 -8 -2 -29 -11 -46 -23 -45 -9 -51 25 -10 34 42 50 33 27 -15 -22 -45
-21 -48 3 -42 15 4 20 0 20 -14 0 -11 -9 -27 -20 -36 -12 -10 -20 -30 -20 -48
0 -22 -13 -45 -44 -80 -69 -80 -150 -215 -128 -215 4 0 22 25 40 54 18 30 61
86 97 125 88 96 115 155 117 256 1 57 -25 87 -91 111 -25 8 -68 24 -96 34 -61
22 -94 29 -117 23z"/>
<path d="M5003 5743 c-12 -51 -5 -165 10 -160 17 5 29 84 22 145 -8 61 -19 67
-32 15z"/>
<path d="M2225 5840 c-4 -6 -3 -25 0 -42 6 -28 5 -30 -11 -23 -51 21 -49 28
-48 -152 0 -92 4 -179 8 -193 13 -39 39 -66 120 -130 41 -33 80 -69 86 -80 15
-28 40 -26 40 4 0 16 -24 50 -75 104 -41 43 -72 82 -68 86 4 3 -4 17 -16 30
-17 18 -19 25 -9 29 10 3 7 11 -9 29 -29 31 -29 36 5 40 l27 3 -32 29 c-37 33
-42 56 -13 56 25 0 25 8 0 40 -29 37 -26 54 8 46 30 -7 62 -40 62 -63 0 -8 5
-24 11 -35 9 -17 13 -18 20 -7 13 21 1 65 -42 151 -40 79 -53 96 -64 78z"/>
<path d="M2450 5672 c0 -4 16 -23 35 -42 36 -35 43 -58 24 -77 -8 -8 -7 -17 5
-34 26 -38 21 -52 -13 -34 -40 20 -46 6 -16 -35 32 -43 32 -55 0 -34 -53 35
-48 6 9 -54 65 -68 94 -80 80 -34 -4 15 -7 77 -6 137 2 95 0 114 -18 143 -25
41 -100 89 -100 64z"/>
<path d="M2440 5344 c0 -9 102 -114 111 -114 22 0 5 31 -41 74 -44 41 -70 56
-70 40z"/>
<path d="M5752 5837 c-15 -19 -74 -139 -83 -170 -8 -30 -3 -57 12 -57 4 0 13
17 19 39 12 44 23 56 63 66 33 9 36 -8 7 -45 -25 -32 -25 -40 0 -40 29 0 24
-23 -12 -56 l-33 -29 28 -3 c33 -4 33 -9 5 -39 -19 -20 -20 -25 -8 -33 13 -8
11 -12 -8 -26 -13 -9 -21 -22 -18 -29 2 -7 -7 -23 -21 -36 -51 -47 -123 -140
-123 -160 0 -25 26 -25 40 1 6 11 45 47 86 80 81 64 107 91 120 130 13 41 11
360 -3 360 -6 0 -15 -4 -18 -10 -3 -5 -13 -10 -21 -10 -12 0 -13 8 -9 34 7 36
-6 54 -23 33z"/>
<path d="M5502 5660 c-60 -37 -73 -71 -70 -195 1 -60 -2 -122 -6 -137 -14 -46
15 -34 80 34 57 60 62 89 9 54 -32 -21 -32 -9 0 34 30 41 24 55 -16 35 -34
-18 -39 -4 -13 34 12 17 13 26 5 34 -19 19 -12 42 24 77 52 51 46 66 -13 30z"/>
<path d="M5490 5304 c-46 -43 -63 -74 -41 -74 9 0 111 105 111 114 0 16 -26 1
-70 -40z"/>
<path d="M1875 5285 c-16 -51 -13 -49 -40 -31 -31 20 -49 13 -35 -14 16 -29
12 -50 -9 -50 -11 0 -23 5 -26 10 -15 25 -26 8 -20 -30 8 -45 3 -48 -32 -20
-14 11 -30 20 -34 20 -15 0 -10 -37 6 -50 8 -7 15 -16 15 -21 0 -17 -27 -9
-50 16 -31 33 -44 32 -36 -5 6 -31 1 -36 -24 -20 -14 9 -40 -4 -40 -21 0 -20
35 -39 73 -39 37 0 44 -4 56 -30 15 -34 9 -60 -13 -60 -26 0 -30 -22 -6 -40
25 -19 20 -40 -10 -40 -24 0 -36 -20 -19 -31 46 -29 82 4 93 83 4 26 18 63 32
83 37 55 29 89 -11 45 -19 -21 -45 -27 -45 -10 0 6 4 10 10 10 5 0 42 30 81
67 l70 67 45 -12 c64 -17 81 -15 88 11 10 39 7 49 -14 42 -17 -5 -20 -2 -20
20 0 27 0 27 -25 11 -24 -16 -25 -15 -25 3 0 43 -25 69 -35 36z"/>
<path d="M2066 5042 c-7 -12 24 -70 40 -76 17 -6 19 26 4 53 -11 21 -37 34
-44 23z"/>
<path d="M1985 4970 c-7 -12 3 -27 49 -77 50 -55 65 -35 21 29 -29 43 -60 64
-70 48z"/>
<path d="M1900 4900 c0 -14 78 -98 103 -111 48 -26 21 30 -42 88 -36 33 -61
42 -61 23z"/>
<path d="M1830 4811 c0 -20 143 -111 156 -98 11 11 -24 45 -82 77 -53 31 -74
37 -74 21z"/>
<path d="M6096 5284 c-3 -9 -6 -24 -6 -35 0 -18 -1 -19 -25 -3 -25 16 -25 16
-25 -11 0 -22 -3 -25 -20 -20 -21 7 -24 -3 -14 -42 7 -26 24 -28 88 -11 l45
12 70 -67 c39 -37 76 -67 81 -67 6 0 10 -4 10 -10 0 -17 -26 -11 -45 10 -40
44 -48 10 -11 -45 14 -20 28 -57 31 -83 10 -76 32 -100 79 -88 32 8 30 28 -4
36 -31 7 -36 26 -11 40 28 14 26 28 -4 40 -28 11 -31 24 -12 63 10 23 18 27
54 27 42 0 78 22 70 44 -2 6 -18 10 -35 10 -29 -2 -31 0 -25 27 7 36 -6 37
-37 4 -36 -39 -56 -33 -31 9 12 18 21 36 21 40 0 13 -28 5 -53 -14 -35 -28
-40 -25 -32 20 6 38 -5 55 -20 30 -8 -13 -45 -13 -45 -1 0 5 4 21 10 35 12 33
-2 42 -35 20 -27 -17 -25 -19 -41 34 -5 17 -21 15 -28 -4z"/>
<path d="M5900 5030 c-11 -11 -20 -31 -20 -45 0 -22 3 -24 19 -16 22 12 44 68
31 76 -5 3 -18 -3 -30 -15z"/>
<path d="M5979 4961 c-29 -23 -66 -87 -56 -97 8 -8 50 28 79 69 27 37 11 55
-23 28z"/>
<path d="M6045 4882 c-36 -33 -75 -81 -75 -93 0 -5 6 -9 14 -9 15 0 116 103
116 119 0 19 -24 11 -55 -17z"/>
<path d="M6100 4793 c-73 -42 -111 -83 -77 -83 17 0 147 88 147 100 0 17 -23
11 -70 -17z"/>
<path d="M1417 4524 c-3 -4 -3 -19 0 -35 5 -28 4 -29 -26 -23 -36 7 -37 4 -15
-37 12 -24 13 -34 3 -45 -17 -21 -25 -18 -48 22 -25 42 -42 37 -34 -11 5 -32
4 -35 -20 -35 -19 0 -31 8 -41 28 -8 15 -37 49 -66 77 -42 41 -52 47 -60 35
-6 -8 -7 -22 -3 -30 4 -8 6 -27 6 -43 0 -22 5 -29 26 -33 53 -11 57 -14 41
-24 -8 -6 -25 -10 -37 -10 -40 0 -25 -27 21 -39 61 -15 72 -34 15 -26 -46 6
-76 -5 -65 -24 4 -6 20 -11 36 -11 16 0 32 -4 35 -10 3 -6 -4 -10 -17 -10 -67
-1 -90 -31 -29 -40 41 -6 41 -23 0 -31 -52 -11 -61 -51 -14 -63 20 -5 24 -12
21 -43 -1 -27 -7 -39 -20 -41 -10 -2 -16 -11 -14 -20 2 -13 14 -17 43 -17 l40
0 5 75 c5 79 48 208 77 232 9 7 43 23 75 34 48 18 65 20 93 11 28 -8 39 -7 62
9 15 10 35 18 43 19 8 0 16 8 18 17 3 14 -4 17 -33 15 -20 -2 -40 -9 -45 -16
-4 -8 -15 -11 -25 -7 -14 5 -16 13 -10 39 4 17 9 51 11 75 3 38 1 42 -20 42
-12 0 -25 -3 -29 -6z"/>
<path d="M1421 4227 c-14 -18 -4 -27 31 -27 31 0 39 24 12 34 -23 9 -30 8 -43
-7z"/>
<path d="M1405 4170 c-9 -15 4 -30 26 -30 23 0 26 25 3 34 -21 8 -22 8 -29 -4z"/>
<path d="M1313 4104 c-40 -31 -42 -52 -5 -56 33 -4 104 39 100 62 -5 26 -59
23 -95 -6z"/>
<path d="M1138 3939 c-27 -15 -22 -29 10 -29 27 0 52 15 52 32 0 11 -42 9 -62
-3z"/>
<path d="M6534 4493 c2 -21 7 -54 11 -74 8 -42 -7 -59 -32 -38 -8 8 -31 15
-50 16 -27 2 -34 -1 -31 -15 2 -9 10 -17 18 -17 8 -1 28 -9 43 -19 23 -16 34
-17 62 -9 28 9 46 6 104 -14 59 -21 72 -31 86 -59 36 -77 49 -123 54 -199 l6
-80 33 -3 c19 -2 40 -1 48 2 17 7 8 34 -14 38 -11 2 -17 15 -17 39 -1 31 2 37
27 47 15 5 28 17 28 26 0 18 -30 36 -59 36 -12 0 -21 7 -21 15 0 10 10 15 29
15 28 0 49 15 38 27 -3 2 -24 7 -46 10 -45 6 -46 23 -1 23 16 0 32 5 36 11 11
19 -19 30 -66 23 -56 -7 -44 10 19 29 50 14 57 30 17 37 -36 6 -47 30 -14 30
31 0 44 11 45 35 1 11 4 29 7 40 4 11 2 27 -3 35 -9 12 -18 7 -56 -30 -26 -25
-55 -60 -66 -77 -14 -23 -28 -33 -45 -33 -22 0 -25 4 -22 33 4 38 -12 49 -28
18 -19 -38 -31 -46 -48 -32 -14 12 -14 16 -1 42 22 42 19 52 -15 44 -29 -6
-30 -6 -28 27 3 29 0 33 -24 36 -26 3 -27 1 -24 -35z"/>
<path d="M6532 4228 c-19 -19 -14 -28 16 -28 35 0 45 9 31 27 -14 16 -31 17
-47 1z"/>
<path d="M6563 4173 c-23 -9 -15 -35 10 -31 12 2 22 9 22 17 0 16 -14 22 -32
14z"/>
<path d="M6600 4124 c-12 -14 -10 -20 20 -45 38 -31 100 -40 100 -15 0 15 -55
66 -70 66 -5 0 -15 2 -23 5 -7 3 -20 -2 -27 -11z"/>
<path d="M6805 3941 c-7 -12 26 -31 54 -31 28 0 27 26 -1 34 -32 8 -46 7 -53
-3z"/>
<path d="M745 3619 c5 -16 2 -22 -15 -26 -22 -6 -23 -22 -5 -67 7 -15 5 -17
-13 -11 -27 8 -28 -8 -4 -43 36 -52 37 -56 14 -50 -39 11 -33 -10 13 -48 64
-54 62 -84 -2 -44 -44 27 -43 6 2 -40 24 -25 34 -42 29 -53 -9 -26 -23 -21
-45 18 -12 19 -23 35 -26 35 -3 0 -3 -18 1 -41 6 -35 4 -40 -10 -37 -10 2 -22
18 -29 37 -12 36 -35 54 -35 27 0 -25 -21 -29 -36 -7 -19 26 -34 19 -34 -15 0
-14 -5 -35 -11 -46 -16 -29 1 -40 40 -27 27 10 35 9 49 -4 13 -13 13 -19 2
-31 -7 -9 -19 -16 -27 -16 -12 0 -13 -8 -8 -41 l7 -41 -26 17 c-25 16 -26 16
-26 0 0 -9 10 -30 21 -47 16 -22 19 -32 10 -41 -8 -8 -19 -3 -41 18 -37 36
-49 26 -26 -21 21 -46 14 -54 -25 -25 -39 29 -47 21 -26 -24 13 -27 23 -35 43
-35 63 0 122 68 136 157 12 74 22 90 63 102 54 15 90 46 103 89 17 56 15 78
-13 157 -28 81 -31 131 -10 182 19 45 13 63 -20 63 -22 0 -25 -3 -20 -21z"/>
<path d="M1044 3503 c-3 -10 -10 -26 -15 -35 -5 -10 -9 -29 -9 -42 0 -31 -16
-42 -36 -25 -14 11 -15 10 -12 -11 3 -23 0 -25 -33 -22 -30 2 -38 -1 -42 -18
-3 -11 -13 -20 -22 -20 -13 0 -16 -5 -10 -22 4 -13 6 -35 6 -50 -2 -40 21 -35
47 11 16 28 34 43 67 56 38 14 50 25 70 66 20 38 24 57 19 89 -7 42 -21 52
-30 23z"/>
<path d="M1170 3295 c0 -16 9 -19 34 -9 25 9 19 24 -9 24 -16 0 -25 -6 -25
-15z"/>
<path d="M1127 3234 c-11 -11 3 -24 24 -24 12 0 19 5 17 13 -5 14 -31 21 -41
11z"/>
<path d="M1102 3174 c1 -9 9 -19 16 -22 9 -3 13 2 10 14 -1 9 -9 19 -16 22 -9
3 -13 -2 -10 -14z"/>
<path d="M745 3125 c-41 -21 -55 -43 -55 -82 0 -34 31 -106 50 -118 18 -11 10
-25 -15 -25 -30 0 -32 -15 -5 -32 30 -19 25 -38 -10 -38 -42 0 -37 -16 12 -41
35 -18 39 -23 25 -31 -11 -6 -24 -5 -38 2 -30 16 -37 3 -12 -22 30 -29 65 -18
80 24 7 18 15 63 19 99 7 70 1 90 -42 142 -32 38 -30 62 6 89 17 12 30 28 30
35 0 17 -8 16 -45 -2z"/>
<path d="M1070 3105 c0 -11 7 -15 23 -13 12 2 22 8 22 13 0 6 -10 11 -22 13
-16 2 -23 -2 -23 -13z"/>
<path d="M1045 3040 c-8 -13 13 -40 31 -40 22 0 28 22 9 37 -23 16 -32 16 -40
3z"/>
<path d="M1030 2942 c0 -17 39 -44 55 -39 21 9 19 24 -4 37 -24 12 -51 13 -51
2z"/>
<path d="M1000 2857 c0 -31 62 -64 80 -42 8 10 3 18 -23 34 -40 24 -57 27 -57
8z"/>
<path d="M960 2766 c0 -32 79 -62 95 -36 7 11 -52 50 -77 50 -10 0 -18 -6 -18
-14z"/>
<path d="M510 2725 c0 -24 24 -44 37 -31 9 8 -14 56 -27 56 -5 0 -10 -11 -10
-25z"/>
<path d="M910 2697 c0 -28 57 -61 85 -51 20 8 4 29 -36 50 -35 18 -49 18 -49
1z"/>
<path d="M835 2661 c-9 -16 38 -61 73 -67 45 -9 41 9 -10 46 -44 32 -54 35
-63 21z"/>
<path d="M7204 3627 c-2 -7 2 -30 11 -50 21 -51 18 -101 -10 -182 -28 -79 -30
-101 -13 -157 13 -43 49 -74 103 -89 42 -12 54 -32 62 -102 8 -71 26 -102 76
-132 61 -35 84 -33 104 10 21 45 13 53 -26 24 -39 -29 -46 -21 -25 25 23 47
11 57 -26 21 -22 -21 -33 -26 -41 -18 -9 9 -6 19 10 41 11 17 21 38 21 47 0
16 -1 16 -26 0 l-26 -17 7 41 c5 33 4 41 -8 41 -8 0 -20 7 -27 16 -11 12 -11
18 2 31 14 13 22 14 49 4 39 -13 56 -2 40 27 -6 11 -11 32 -11 46 0 34 -15 41
-34 15 -15 -22 -36 -18 -36 7 0 27 -23 9 -35 -27 -7 -19 -19 -35 -29 -37 -14
-3 -16 2 -10 37 4 23 4 41 1 41 -3 0 -14 -16 -26 -35 -22 -39 -36 -44 -45 -18
-5 11 5 28 29 53 45 46 46 67 3 40 -65 -40 -67 -10 -3 44 46 38 52 59 13 48
-23 -6 -22 -2 14 50 24 35 23 51 -4 43 -18 -6 -20 -4 -13 11 18 45 17 61 -5
67 -17 4 -20 10 -15 26 5 18 2 21 -20 21 -14 0 -28 -6 -31 -13z"/>
<path d="M6926 3480 c-5 -32 -1 -51 19 -89 20 -41 32 -52 70 -67 36 -13 51
-26 66 -56 22 -43 43 -46 46 -7 1 13 5 34 8 45 5 16 2 23 -14 27 -12 3 -21 12
-21 21 0 13 -8 16 -37 14 -35 -3 -38 -1 -35 22 3 21 2 22 -12 11 -20 -17 -36
-6 -36 25 0 13 -4 32 -9 42 -5 9 -12 25 -15 35 -9 29 -23 19 -30 -23z"/>
<path d="M6787 3304 c-10 -11 3 -24 24 -24 10 0 19 7 19 15 0 15 -31 21 -43 9z"/>
<path d="M6837 3234 c-14 -14 -7 -25 13 -22 12 2 21 8 21 13 0 12 -24 18 -34
9z"/>
<path d="M6873 3175 c-3 -9 -3 -18 0 -21 9 -9 27 6 27 22 0 19 -19 18 -27 -1z"/>
<path d="M7210 3128 c0 -8 14 -24 30 -36 36 -27 38 -51 6 -89 -43 -52 -49 -72
-42 -142 12 -122 40 -160 91 -127 39 25 33 46 -6 26 -12 -7 -25 -7 -36 -2 -14
8 -10 13 25 31 49 25 54 41 12 41 -35 0 -40 19 -10 38 27 17 25 32 -5 32 -30
0 -31 3 -5 38 67 92 52 168 -37 196 -16 5 -23 3 -23 -6z"/>
<path d="M6887 3114 c-10 -11 3 -24 24 -24 10 0 19 7 19 15 0 15 -31 21 -43 9z"/>
<path d="M6915 3036 c-16 -12 -18 -17 -7 -28 15 -15 47 0 47 22 0 20 -18 22
-40 6z"/>
<path d="M6915 2937 c-19 -14 -13 -37 9 -37 13 0 46 31 46 43 0 12 -35 8 -55
-6z"/>
<path d="M6942 2849 c-25 -17 -30 -24 -22 -35 18 -21 80 12 80 43 0 19 -20 16
-58 -8z"/>
<path d="M6978 2764 c-16 -8 -28 -21 -28 -29 0 -22 53 -19 73 3 36 40 8 55
-45 26z"/>
<path d="M7460 2731 c-5 -11 -10 -24 -10 -30 0 -17 27 -13 34 5 16 41 -4 62
-24 25z"/>
<path d="M7032 2692 c-31 -15 -40 -41 -17 -49 16 -5 75 35 75 52 0 19 -16 18
-58 -3z"/>
<path d="M7103 2642 c-45 -28 -50 -45 -16 -50 23 -3 88 52 78 68 -9 15 -15 13
-62 -18z"/>
<path d="M855 2380 c-3 -5 -1 -18 4 -28 6 -10 10 -27 10 -38 0 -10 3 -31 7
-46 5 -24 3 -28 -15 -28 -26 0 -26 -4 0 -39 26 -36 22 -67 -9 -63 -28 4 -28
-15 -1 -45 18 -18 20 -25 9 -38 -7 -8 -21 -15 -31 -15 -23 0 -24 -8 -2 -32 14
-16 15 -23 5 -38 -7 -11 -12 -25 -12 -31 0 -16 31 -38 53 -39 16 0 17 5 12 31
-7 30 -6 31 19 27 30 -6 34 8 11 38 -21 28 -19 54 4 54 28 0 36 18 17 39 -20
22 -20 51 -2 77 12 16 12 23 2 39 -7 11 -16 44 -20 74 -11 80 -42 132 -61 101z"/>
<path d="M360 2351 c-18 -5 -25 -14 -25 -31 0 -18 -6 -26 -22 -28 -13 -2 -23
-7 -23 -12 0 -5 10 -16 23 -25 22 -16 22 -16 3 -30 -11 -8 -23 -15 -28 -15
-19 0 -5 -19 23 -30 l31 -13 -22 -17 -23 -17 24 -17 c13 -9 29 -16 35 -16 6 0
14 -9 17 -19 3 -11 21 -27 41 -35 38 -16 45 -30 22 -43 -8 -4 -14 -17 -13 -28
2 -16 -4 -20 -30 -20 -34 0 -40 -9 -23 -35 6 -10 27 -15 67 -15 57 0 57 0 64
-33 4 -18 5 -42 2 -53 -6 -23 25 -38 39 -18 5 8 7 43 5 79 -4 63 -3 66 27 85
37 25 61 65 77 130 6 28 20 77 30 110 18 56 18 61 2 73 -25 18 -50 15 -56 -7
-3 -14 -11 -18 -26 -14 -28 7 -27 -14 2 -45 l22 -25 -37 7 c-49 9 -53 -16 -7
-40 22 -11 28 -19 21 -26 -7 -7 -20 -4 -40 11 -29 20 -52 27 -52 15 0 -17 24
-46 50 -59 17 -9 30 -22 30 -30 0 -19 -34 -19 -50 0 -21 25 -31 5 -13 -26 13
-21 15 -34 7 -46 -14 -23 -28 -18 -36 14 -4 15 -31 59 -60 98 l-53 70 1 92 c0
51 0 93 0 92 -1 -1 -12 -4 -26 -8z"/>
<path d="M323 1885 c27 -24 67 -34 67 -17 0 10 -65 42 -83 42 -7 0 1 -12 16
-25z"/>
<path d="M260 1840 c0 -15 47 -42 77 -44 44 -2 32 17 -22 36 -60 21 -55 20
-55 8z"/>
<path d="M616 1831 c-3 -5 4 -20 15 -35 21 -27 12 -34 -22 -15 -12 6 -28 8
-36 4 -13 -5 -11 -11 13 -36 l29 -31 -42 7 c-48 8 -50 5 -27 -30 19 -29 16
-30 -56 -39 -25 -2 -54 -7 -65 -10 -14 -5 -32 6 -64 36 -41 38 -42 42 -26 55
24 16 20 19 -38 26 -51 7 -63 -6 -23 -25 l25 -11 -22 -18 -22 -19 22 -6 c17
-5 23 -14 23 -35 0 -16 4 -29 9 -29 17 0 61 -46 61 -64 0 -24 10 -20 45 21 28
33 34 36 49 24 14 -12 19 -11 35 3 19 18 39 7 26 -14 -9 -14 35 -60 57 -60 9
0 20 -4 23 -10 3 -5 10 -10 16 -10 16 0 10 41 -13 81 l-22 39 36 38 c78 82 90
130 38 157 -34 18 -37 18 -44 6z"/>
<path d="M7110 2375 c-6 -8 -17 -45 -24 -82 -6 -37 -17 -77 -23 -88 -9 -16 -8
-25 3 -40 18 -25 18 -54 -2 -76 -19 -21 -11 -39 17 -39 23 0 25 -26 4 -54 -22
-30 -19 -44 10 -38 23 4 25 2 19 -27 -8 -37 11 -42 47 -12 22 17 22 21 10 45
-13 23 -12 28 2 44 23 25 22 29 -13 36 -35 6 -38 25 -10 51 27 25 26 47 -2 43
-31 -4 -35 27 -9 63 26 35 26 39 0 39 -19 0 -20 4 -13 48 4 26 10 57 15 68 12
34 -8 46 -31 19z"/>
<path d="M7614 2266 l1 -91 -49 -65 c-27 -36 -56 -82 -64 -102 -12 -30 -18
-36 -29 -27 -17 15 -17 34 3 63 17 27 4 45 -16 21 -16 -19 -50 -19 -50 0 0 8
13 21 30 30 26 13 50 42 50 59 0 12 -23 5 -52 -15 -20 -15 -33 -18 -40 -11 -7
7 -1 15 21 26 46 24 42 49 -6 40 l-38 -7 23 25 c28 31 29 52 1 45 -15 -4 -23
0 -26 14 -6 22 -31 25 -56 7 -16 -12 -16 -17 3 -70 11 -32 20 -66 20 -77 0
-62 64 -167 110 -183 8 -2 8 -16 0 -50 -10 -37 -9 -52 2 -75 21 -45 41 -36 44
21 2 27 6 51 9 55 4 3 31 6 61 6 38 0 58 5 64 15 17 26 11 35 -22 35 -27 0
-33 4 -31 20 1 11 -5 24 -13 28 -23 13 -16 27 22 43 20 8 38 24 41 35 3 10 11
19 17 19 6 0 22 7 35 16 l24 17 -23 17 -22 17 31 13 c28 11 42 30 23 30 -5 0
-17 7 -28 15 -19 14 -19 14 4 30 12 9 22 20 22 25 0 5 -10 10 -22 12 -17 2
-23 10 -23 27 0 18 -8 27 -26 31 l-25 7 0 -91z"/>
<path d="M7643 1893 c-36 -18 -43 -33 -15 -33 21 0 62 27 62 41 0 12 -9 11
-47 -8z"/>
<path d="M7677 1830 c-52 -18 -59 -36 -14 -34 30 2 77 29 77 44 0 12 -3 12
-63 -10z"/>
<path d="M7338 1824 c-48 -26 -36 -77 35 -151 l41 -43 -22 -39 c-23 -40 -29
-81 -13 -81 6 0 13 5 16 10 3 6 15 10 26 10 11 0 22 7 25 15 4 8 13 15 21 15
11 0 13 7 9 24 -8 32 10 43 26 17 12 -19 13 -19 31 -3 18 16 21 15 52 -20 35
-42 45 -46 45 -22 0 18 44 64 61 64 5 0 9 13 9 29 0 21 6 30 23 35 l22 6 -22
19 -22 18 25 11 c40 19 28 32 -23 25 -58 -7 -63 -11 -40 -28 17 -12 15 -16
-25 -54 -31 -30 -49 -40 -63 -35 -11 3 -40 8 -65 10 -72 9 -75 10 -56 39 23
35 21 38 -26 30 l-43 -7 29 31 c24 25 26 31 13 36 -8 4 -24 2 -36 -4 -34 -19
-43 -12 -22 15 19 24 20 45 3 44 -4 -1 -19 -8 -34 -16z"/>
<path d="M347 1130 c-4 -15 -14 -20 -36 -20 -28 0 -31 -2 -21 -19 15 -29 12
-38 -12 -44 -22 -6 -22 -6 6 -36 29 -31 28 -34 -18 -45 l-29 -7 24 -25 24 -25
-24 -18 -23 -17 27 -18 c15 -10 31 -31 37 -47 6 -19 19 -31 36 -35 35 -9 54
-24 48 -40 -3 -7 10 -22 30 -33 44 -26 43 -41 -1 -41 -39 0 -46 -14 -15 -30
24 -13 18 -30 -11 -30 -23 0 -24 -8 -2 -32 15 -17 14 -18 -15 -18 -33 0 -43
-16 -17 -26 24 -9 17 -31 -11 -38 -21 -6 -24 -9 -14 -21 7 -8 19 -15 27 -15
11 0 14 -7 11 -25 -3 -14 -1 -28 5 -32 13 -8 37 25 37 49 0 10 16 59 35 109
20 50 38 104 42 120 9 48 -14 87 -74 121 -89 50 -92 61 -64 222 13 75 22 84
63 68 59 -22 50 16 -11 48 -49 25 -47 25 -54 0z"/>
<path d="M620 1111 c0 -5 11 -18 25 -29 14 -11 25 -25 25 -31 0 -13 -2 -14
-34 -1 -39 15 -33 -12 9 -44 44 -34 37 -50 -11 -30 -47 20 -54 11 -19 -26 l28
-29 -19 -60 c-11 -34 -22 -61 -25 -61 -14 0 -30 30 -22 42 4 7 13 28 19 46 11
29 9 34 -9 47 -30 21 -40 19 -34 -6 4 -15 2 -19 -9 -15 -8 3 -21 9 -29 12 -19
8 -19 -6 0 -33 14 -21 14 -22 -12 -25 -23 -2 -29 -8 -31 -36 -3 -33 -1 -35 51
-46 33 -8 48 -41 35 -76 -7 -20 -5 -27 14 -42 l23 -18 -27 0 c-35 0 -36 -12
-3 -30 14 -7 25 -20 25 -27 0 -22 -26 -66 -53 -91 -36 -34 -54 -79 -37 -95 8
-7 14 -8 16 -2 10 27 45 75 54 75 5 0 10 -9 10 -21 0 -18 4 -20 25 -15 21 5
25 3 25 -15 0 -17 5 -20 25 -17 17 4 25 1 25 -8 0 -21 49 -49 62 -36 20 20 -1
59 -57 106 -61 53 -65 67 -34 128 16 32 19 51 15 87 -20 143 -20 141 23 224
23 43 41 90 41 103 0 25 -32 80 -55 96 -15 11 -55 10 -55 -1z"/>
<path d="M862 384 c4 -22 45 -31 61 -15 14 14 8 19 -32 27 -29 6 -33 4 -29
-12z"/>
<path d="M7597 1129 c-59 -31 -66 -68 -9 -47 41 16 50 7 63 -68 28 -160 24
-173 -59 -219 -50 -27 -82 -68 -82 -104 0 -11 12 -51 26 -88 34 -92 51 -143
58 -175 5 -20 13 -28 27 -28 16 0 19 4 15 17 -5 11 2 24 21 39 l28 22 -27 7
c-30 8 -37 29 -13 39 26 10 16 26 -17 26 -29 0 -30 1 -15 18 22 24 21 32 -2
32 -29 0 -35 17 -11 30 31 16 24 30 -15 30 -44 0 -45 15 -1 41 20 11 33 26 30
33 -6 16 13 31 48 40 17 4 30 16 36 35 6 16 22 37 37 47 l27 18 -23 17 -24 18
24 25 24 25 -29 7 c-46 11 -47 14 -18 45 28 30 28 30 6 36 -24 6 -27 15 -12
44 10 17 7 19 -21 19 -22 0 -32 5 -36 20 -6 24 -8 24 -56 -1z"/>
<path d="M7325 1112 c-23 -16 -55 -71 -55 -96 0 -13 18 -60 41 -103 43 -83 43
-81 23 -224 -4 -36 -1 -55 15 -87 31 -61 27 -75 -34 -128 -56 -47 -77 -86 -57
-106 13 -13 62 15 62 36 0 9 8 12 25 8 20 -3 25 0 25 17 0 18 4 20 25 15 21
-5 25 -3 25 15 0 12 5 21 10 21 9 0 44 -48 54 -75 2 -6 8 -5 16 2 17 16 -1 61
-37 95 -27 25 -53 69 -53 91 0 7 11 20 25 27 33 18 32 30 -2 30 l-28 0 23 18
c19 15 21 22 14 42 -13 35 2 68 35 76 52 11 54 13 51 46 -2 28 -8 34 -31 36
-26 3 -26 4 -12 25 20 28 19 41 -2 32 -10 -4 -23 -9 -30 -12 -7 -3 -10 3 -6
16 6 25 -4 27 -34 6 -18 -13 -20 -18 -9 -47 6 -18 15 -39 19 -46 8 -12 -8 -42
-22 -42 -3 0 -14 27 -25 61 l-19 60 28 29 c35 37 28 46 -19 26 -48 -20 -55 -4
-11 30 42 32 48 59 9 44 -32 -13 -34 -12 -34 1 0 6 11 20 25 31 14 11 25 24
25 29 0 11 -40 12 -55 1z"/>
<path d="M7088 393 c-20 -5 -23 -18 -7 -28 16 -11 59 4 59 20 0 15 -17 17 -52
8z"/>
<path d="M3905 5558 c-2 -7 -9 -33 -15 -58 -7 -25 -26 -71 -43 -103 -21 -40
-27 -61 -20 -68 7 -7 17 -2 31 16 42 53 85 206 63 220 -6 3 -13 0 -16 -7z"/>
<path d="M4080 5537 c0 -67 60 -217 87 -217 20 0 16 24 -17 88 -16 32 -34 82
-41 110 -12 59 -29 69 -29 19z"/>
<path d="M3340 5519 c0 -29 18 -59 35 -59 18 0 19 20 3 55 -14 30 -38 33 -38
4z"/>
<path d="M4622 5508 c-8 -21 -8 -36 -2 -42 14 -14 39 12 42 44 5 38 -25 37
-40 -2z"/>
<path d="M3760 5463 c-31 -82 -37 -117 -19 -111 15 5 57 110 58 146 1 40 -17
23 -39 -35z"/>
<path d="M4206 5512 c-6 -10 18 -112 34 -143 13 -24 30 -25 30 -1 0 23 -37
133 -49 145 -5 5 -11 5 -15 -1z"/>
<path d="M3478 5476 c-6 -14 -7 -33 -4 -43 7 -17 8 -17 22 1 16 23 19 66 4 66
-6 0 -15 -11 -22 -24z"/>
<path d="M3551 5457 c-12 -24 -21 -51 -21 -60 0 -31 21 -18 40 26 36 78 18
110 -19 34z"/>
<path d="M3651 5477 c-33 -86 -37 -128 -12 -113 9 6 41 102 41 125 0 20 -20
11 -29 -12z"/>
<path d="M4331 5468 c1 -68 49 -148 49 -84 0 24 -37 116 -46 116 -2 0 -4 -15
-3 -32z"/>
<path d="M4416 5473 c9 -40 35 -93 45 -93 18 0 17 19 -6 68 -26 56 -50 71 -39
25z"/>
<path d="M4494 5487 c-7 -19 14 -69 26 -62 18 11 8 75 -11 75 -5 0 -12 -6 -15
-13z"/>
<path d="M3270 5455 c-13 -34 -13 -92 0 -100 13 -8 30 37 30 80 0 43 -17 54
-30 20z"/>
<path d="M4705 5442 c-6 -40 7 -92 25 -92 11 0 14 88 4 114 -10 27 -22 18 -29
-22z"/>
<path d="M3186 5402 c-15 -24 -35 -137 -26 -146 17 -17 28 5 39 74 10 58 3 97
-13 72z"/>
<path d="M4803 5350 c7 -77 14 -100 33 -100 18 0 17 21 -1 89 -22 84 -39 90
-32 11z"/>
<path d="M3066 5313 c-9 -56 -7 -93 4 -93 15 0 30 45 30 91 0 52 -25 53 -34 2z"/>
<path d="M4906 5325 c-8 -33 11 -108 27 -102 19 6 7 127 -13 127 -4 0 -11 -11
-14 -25z"/>
<path d="M2840 5315 c0 -2 9 -24 20 -47 11 -24 24 -62 30 -85 12 -49 30 -57
30 -14 0 36 -18 89 -42 124 -17 24 -38 36 -38 22z"/>
<path d="M2974 5295 c-4 -15 -1 -38 6 -53 10 -24 13 -25 21 -9 13 23 7 79 -8
84 -7 3 -15 -7 -19 -22z"/>
<path d="M4994 5284 c-7 -37 6 -62 25 -50 6 4 11 25 11 47 0 51 -26 54 -36 3z"/>
<path d="M5121 5285 c-29 -43 -48 -122 -32 -138 11 -11 31 28 31 61 0 10 11
38 25 65 30 56 13 66 -24 12z"/>
<path d="M2820 5211 c0 -5 5 -22 12 -38 6 -15 14 -64 17 -108 7 -94 25 -106
29 -19 3 65 -23 164 -46 172 -7 2 -12 -1 -12 -7z"/>
<path d="M5152 5193 c-33 -83 -41 -202 -14 -211 9 -3 12 14 12 61 0 35 7 84
15 107 8 23 15 49 15 56 0 24 -17 15 -28 -13z"/>
<path d="M5206 5094 c-9 -24 -7 -184 3 -184 12 0 21 52 21 126 0 61 -12 90
-24 58z"/>
<path d="M2776 5037 c-10 -103 14 -176 29 -86 8 46 -2 149 -14 149 -5 0 -11
-28 -15 -63z"/>
<path d="M2686 4999 c-9 -46 -7 -107 3 -113 12 -8 21 29 21 92 0 57 -14 70
-24 21z"/>
<path d="M5290 4978 c0 -61 8 -98 21 -98 10 0 12 110 3 134 -12 32 -24 14 -24
-36z"/>
<path d="M2571 4933 c-14 -50 -14 -63 3 -63 15 0 26 30 26 73 0 39 -17 33 -29
-10z"/>
<path d="M5400 4946 c0 -33 17 -76 30 -76 13 0 13 41 0 74 -12 33 -30 34 -30
2z"/>
<path d="M2352 4898 c5 -15 76 -34 86 -23 4 4 -2 13 -12 21 -25 18 -79 19 -74
2z"/>
<path d="M5583 4898 c-13 -6 -23 -15 -23 -21 0 -14 71 0 89 18 14 13 12 15
-14 14 -17 0 -40 -5 -52 -11z"/>
<path d="M2350 4828 c0 -7 15 -23 33 -35 60 -41 81 -22 24 21 -37 28 -57 33
-57 14z"/>
<path d="M5598 4819 c-26 -19 -38 -49 -20 -49 13 0 82 50 82 60 0 17 -34 10
-62 -11z"/>
<path d="M2320 4758 c-1 -19 63 -138 74 -138 14 0 -2 61 -30 107 -24 42 -44
55 -44 31z"/>
<path d="M5629 4705 c-23 -47 -29 -69 -21 -77 7 -7 21 10 46 61 41 80 41 81
22 81 -8 0 -29 -29 -47 -65z"/>
<path d="M2270 4674 c0 -26 31 -138 41 -148 19 -20 20 6 4 83 -12 53 -23 81
-31 81 -8 0 -14 -7 -14 -16z"/>
<path d="M5705 4678 c-28 -78 -35 -189 -10 -148 11 18 35 112 35 138 0 23 -18
30 -25 10z"/>
<path d="M2205 4553 c4 -25 12 -58 18 -72 l11 -26 4 32 c4 39 -15 113 -30 113
-7 0 -8 -16 -3 -47z"/>
<path d="M5777 4568 c-19 -41 -23 -98 -7 -98 13 0 32 75 27 108 -3 27 -4 26
-20 -10z"/>
<path d="M2100 4513 c0 -22 54 -132 60 -122 15 23 -23 129 -47 129 -7 0 -13
-3 -13 -7z"/>
<path d="M5865 4493 c-10 -15 -20 -47 -22 -72 l-3 -46 30 60 c16 33 30 66 30
73 0 20 -17 14 -35 -15z"/>
<path d="M2041 4428 c12 -29 23 -59 26 -65 4 -11 23 -19 23 -10 0 12 -35 104
-43 115 -22 28 -25 8 -6 -40z"/>
<path d="M5956 4472 c-17 -28 -42 -113 -35 -118 5 -3 12 3 15 13 4 10 15 38
25 62 11 24 19 45 19 47 0 7 -19 4 -24 -4z"/>
<path d="M1950 4462 c0 -5 4 -33 10 -63 5 -30 12 -71 15 -93 4 -22 10 -35 15
-30 8 8 -1 111 -15 172 -5 21 -25 32 -25 14z"/>
<path d="M6026 4438 c-17 -105 -22 -159 -15 -164 9 -5 13 8 28 107 13 81 13
89 1 89 -5 0 -11 -15 -14 -32z"/>
<path d="M1876 4353 c2 -58 8 -111 14 -117 12 -12 12 -11 10 99 -1 85 -8 125
-19 125 -4 0 -6 -48 -5 -107z"/>
<path d="M6106 4383 c-8 -105 -8 -153 3 -153 5 0 11 10 14 23 9 37 7 207 -2
207 -4 0 -11 -34 -15 -77z"/>
<path d="M1810 4156 c0 -19 65 -184 77 -196 14 -13 15 -11 10 24 -9 60 -57
176 -73 176 -8 0 -14 -2 -14 -4z"/>
<path d="M6145 4107 c-44 -101 -56 -161 -27 -143 10 6 72 168 72 187 0 26 -24
3 -45 -44z"/>
<path d="M1755 4048 c3 -13 16 -72 28 -133 25 -121 35 -147 48 -124 14 27 -51
279 -72 279 -5 0 -7 -10 -4 -22z"/>
<path d="M6224 4035 c-23 -56 -54 -183 -54 -222 0 -50 23 -37 33 18 4 24 17
86 28 137 22 100 19 129 -7 67z"/>
<path d="M1706 3823 c7 -105 17 -143 35 -143 9 0 10 23 5 86 -6 77 -26 154
-41 154 -3 0 -2 -44 1 -97z"/>
<path d="M6280 3901 c-11 -21 -29 -137 -30 -188 0 -22 5 -33 15 -33 15 0 21
23 30 139 4 40 9 79 12 87 8 21 -15 17 -27 -5z"/>
<path d="M1624 3815 c-8 -45 1 -144 15 -158 17 -17 24 18 19 99 -6 87 -23 117
-34 59z"/>
<path d="M6356 3842 c-3 -5 -8 -50 -12 -100 -6 -79 -5 -92 8 -92 18 0 28 47
28 138 0 55 -10 77 -24 54z"/>
<path d="M1540 3688 c0 -70 13 -104 30 -78 14 22 -3 140 -20 140 -6 0 -10 -28
-10 -62z"/>
<path d="M6436 3728 c-11 -44 -7 -130 7 -126 8 3 13 30 15 76 3 69 -9 96 -22
50z"/>
<path d="M1466 3646 c-8 -31 2 -56 21 -56 10 0 13 10 11 37 -4 43 -23 55 -32
19z"/>
<path d="M6504 3656 c-8 -21 -1 -59 12 -63 16 -5 25 23 18 53 -7 27 -22 32
-30 10z"/>
<path d="M1392 3609 c1 -12 9 -24 16 -27 9 -3 13 3 10 19 -1 12 -9 24 -16 27
-9 3 -13 -3 -10 -19z"/>
<path d="M6587 3623 c-13 -12 -7 -43 7 -43 16 0 25 19 18 38 -5 13 -15 16 -25
5z"/>
<path d="M1450 3365 c0 -3 19 -59 41 -125 29 -84 45 -118 52 -111 19 19 -58
241 -83 241 -5 0 -10 -2 -10 -5z"/>
<path d="M6507 3313 c-50 -114 -71 -213 -38 -177 8 8 81 214 81 228 0 3 -4 6
-9 6 -4 0 -20 -26 -34 -57z"/>
<path d="M1426 3158 c24 -78 68 -189 76 -194 7 -5 9 8 6 39 -6 52 -61 177 -78
177 -7 0 -9 -8 -4 -22z"/>
<path d="M6550 3159 c-21 -38 -60 -149 -60 -169 0 -41 19 -17 49 61 17 45 34
92 37 105 8 30 -11 32 -26 3z"/>
<path d="M1360 3046 c0 -12 72 -182 80 -190 20 -20 22 5 5 55 -26 81 -56 139
-71 139 -8 0 -14 -2 -14 -4z"/>
<path d="M6587 2993 c-32 -75 -50 -133 -43 -140 7 -7 36 16 36 29 0 5 14 43
30 85 35 86 34 83 16 83 -7 0 -25 -26 -39 -57z"/>
<path d="M1344 2857 c12 -64 41 -141 55 -145 19 -6 7 57 -24 126 -27 59 -40
67 -31 19z"/>
<path d="M6632 2853 c-23 -46 -45 -133 -37 -142 12 -12 33 30 50 100 20 81 15
98 -13 42z"/>
<path d="M1284 2694 c14 -70 56 -127 56 -74 0 24 -35 95 -51 106 -9 5 -10 -4
-5 -32z"/>
<path d="M6704 2719 c-15 -18 -44 -88 -44 -105 0 -29 22 -12 41 31 22 50 24
100 3 74z"/>
<path d="M1210 2619 c0 -21 44 -89 57 -89 21 0 15 30 -13 67 -25 33 -44 43
-44 22z"/>
<path d="M6745 2593 c-28 -42 -32 -63 -11 -63 16 0 42 37 52 74 9 38 -11 32
-41 -11z"/>
<path d="M1130 2543 c0 -16 41 -74 55 -80 28 -10 28 6 1 47 -23 35 -56 54 -56
33z"/>
<path d="M6816 2510 c-30 -46 -31 -50 -12 -50 17 0 66 56 66 76 0 27 -27 14
-54 -26z"/>
<path d="M1055 2480 c-8 -12 39 -60 58 -60 18 0 39 24 30 33 -3 4 -14 7 -23 7
-10 0 -23 7 -30 15 -14 17 -26 19 -35 5z"/>
<path d="M6915 2479 c-4 -5 -18 -14 -31 -19 -27 -11 -31 -25 -9 -34 19 -7 62
12 69 31 11 27 -15 46 -29 22z"/>
<path d="M1200 2240 c0 -21 125 -230 138 -230 6 0 12 3 12 7 0 9 -89 173 -112
206 -20 27 -38 36 -38 17z"/>
<path d="M6753 2203 c-82 -131 -110 -193 -90 -193 13 0 137 206 137 228 0 25
-19 11 -47 -35z"/>
<path d="M1190 2056 c0 -1 34 -73 75 -160 67 -140 95 -182 95 -142 0 30 -105
249 -138 289 -13 15 -32 23 -32 13z"/>
<path d="M6769 2029 c-26 -37 -129 -258 -129 -277 0 -24 24 -7 42 29 29 56
128 269 128 274 0 15 -21 1 -41 -26z"/>
<path d="M1170 1866 c0 -7 131 -250 142 -264 7 -8 15 -9 21 -3 17 17 -127 271
-154 271 -5 0 -9 -2 -9 -4z"/>
<path d="M6787 1838 c-41 -55 -129 -227 -122 -238 12 -20 33 9 100 137 36 69
65 127 65 129 0 14 -23 -1 -43 -28z"/>
<path d="M1170 1685 c0 -15 69 -152 88 -175 18 -22 21 -23 27 -7 8 19 9 17
-43 112 -21 38 -46 71 -55 73 -9 2 -17 1 -17 -3z"/>
<path d="M6771 1633 c-17 -32 -38 -70 -47 -84 -21 -33 -12 -68 12 -48 16 13
76 126 88 167 15 46 -21 22 -53 -35z"/>
<path d="M1130 1523 c0 -21 87 -158 103 -161 9 -2 17 2 17 10 -1 24 -85 153
-103 156 -9 2 -17 0 -17 -5z"/>
<path d="M6833 1518 c-6 -7 -27 -42 -47 -77 -27 -47 -34 -67 -26 -75 8 -8 17
-4 32 14 19 23 78 133 78 145 0 10 -28 5 -37 -7z"/>
<path d="M1100 1387 c0 -28 46 -97 65 -97 21 0 19 8 -15 68 -32 56 -50 66 -50
29z"/>
<path d="M6864 1377 c-30 -45 -46 -78 -41 -83 18 -18 77 54 77 95 0 30 -12 26
-36 -12z"/>
<path d="M1045 1320 c-12 -19 31 -70 59 -70 13 0 5 29 -15 54 -22 28 -34 32
-44 16z"/>
<path d="M6911 1299 c-31 -41 -14 -59 24 -26 19 16 26 29 22 40 -9 24 -20 21
-46 -14z"/>
<path d="M980 1276 c0 -15 26 -46 39 -46 17 0 19 14 4 36 -17 26 -43 32 -43
10z"/>
<path d="M6976 1266 c-18 -29 -6 -42 24 -26 23 12 27 50 6 50 -7 0 -21 -11
-30 -24z"/>
<path d="M1220 1245 c0 -3 7 -17 16 -30 9 -14 31 -64 49 -112 19 -51 39 -88
47 -88 7 0 12 8 10 20 -5 32 -96 209 -109 213 -7 2 -13 1 -13 -3z"/>
<path d="M6741 1217 c-30 -50 -81 -167 -81 -188 0 -10 4 -19 8 -19 10 0 27 35
53 109 10 29 28 68 39 86 22 36 24 45 11 45 -5 0 -18 -15 -30 -33z"/>
<path d="M1140 1153 c0 -4 20 -38 44 -75 24 -38 61 -104 82 -148 35 -73 63
-100 56 -54 -12 72 -183 334 -182 277z"/>
<path d="M6805 1113 c-36 -49 -117 -200 -130 -240 -4 -16 -2 -23 7 -23 7 0 33
39 57 88 23 48 60 114 82 148 21 33 39 63 39 67 0 19 -24 2 -55 -40z"/>
<path d="M1159 948 c12 -18 39 -65 61 -104 44 -78 70 -108 70 -80 0 25 -32 83
-84 154 -47 64 -85 88 -47 30z"/>
<path d="M6816 949 c-36 -42 -106 -164 -106 -183 0 -32 18 -14 63 67 26 45 56
97 68 115 27 41 9 42 -25 1z"/>
<path d="M1163 785 c18 -61 86 -210 97 -213 19 -7 6 48 -31 130 -32 67 -80
128 -66 83z"/>
<path d="M6812 773 c-26 -37 -82 -165 -82 -187 0 -27 17 -18 33 17 40 85 77
181 74 190 -2 6 -13 -3 -25 -20z"/>
<path d="M1130 632 c0 -5 23 -58 51 -117 37 -79 54 -104 62 -96 12 12 -17 93
-63 170 -24 42 -50 64 -50 43z"/>
<path d="M6842 628 c-16 -21 -80 -151 -87 -180 -4 -14 -2 -29 4 -32 9 -6 111
192 111 215 0 13 -16 11 -28 -3z"/>
<path d="M1120 467 c0 -25 61 -181 78 -197 13 -13 14 -10 9 26 -8 71 -87 225
-87 171z"/>
<path d="M6851 450 c-11 -19 -30 -57 -40 -85 -32 -87 -34 -95 -18 -95 14 0 34
39 72 142 23 61 15 84 -14 38z"/>
<path d="M1105 228 c4 -40 11 -77 15 -82 16 -17 23 46 11 100 -18 80 -34 69
-26 -18z"/>
<path d="M6880 274 c-16 -41 -24 -134 -12 -134 12 0 18 17 27 80 4 25 9 53 11
63 8 27 -15 20 -26 -9z"/>
<path d="M1016 201 c-3 -5 -1 -32 4 -61 6 -29 10 -54 10 -56 0 -2 7 -4 15 -4
18 0 19 29 5 82 -11 39 -25 55 -34 39z"/>
<path d="M6961 191 c-6 -11 -14 -41 -18 -67 -9 -67 18 -55 35 16 14 57 3 90
-17 51z"/>
<path d="M924 125 c-12 -30 34 -120 52 -102 9 9 -25 117 -37 117 -5 0 -12 -7
-15 -15z"/>
<path d="M7035 90 c-12 -35 -14 -55 -7 -62 14 -14 44 33 46 73 2 51 -20 45
-39 -11z"/>
<path d="M840 66 c0 -26 24 -51 40 -41 6 4 5 16 -5 36 -19 35 -35 38 -35 5z"/>
<path d="M7125 61 c-10 -20 -11 -32 -5 -36 16 -10 40 15 40 41 0 33 -16 30
-35 -5z"/>
<path d="M767 53 c-15 -15 -6 -43 13 -43 11 0 20 6 20 14 0 17 -24 38 -33 29z"/>
<path d="M7212 48 c-18 -18 -14 -38 8 -38 13 0 20 7 20 19 0 25 -13 34 -28 19z"/>
</g>
</svg>
